# xmcd
#
# Track frame offsets:
#	150
#	14235
#	27932
#	40952
#	55169
#	68392
#	82211
#	96238
#	109893
#	123090
#	137881
#	149967
#	165128
#	180047
#	186557
#	194098
#
# Disc length: 2637 seconds
#
# Revision: 0
# Processed by: cddbd v1.5.1PL0 Copyright (c) Steve Scherf et al.
# Submitted via: dBpowerAMP V4.0
#
DISCID=e90a4b10
DTITLE=Paul Strathern - Kierkegaard in 90 Minutes
DYEAR=2003
DGENRE=Audiobooks
TTITLE0=Kierkegaard 2-01
TTITLE1=Kierkegaard 2-02
TTITLE2=Kierkegaard 2-03
TTITLE3=Kierkegaard 2-04
TTITLE4=Kierkegaard 2-05
TTITLE5=Kierkegaard 2-06
TTITLE6=Kierkegaard 2-07
TTITLE7=Kierkegaard 2-08
TTITLE8=Kierkegaard 2-09
TTITLE9=Kierkegaard 2-10
TTITLE10=Kierkegaard 2-11
TTITLE11=Kierkegaard 2-12
TTITLE12=Kierkegaard 2-13
TTITLE13=Kierkegaard 2-14
TTITLE14=Kierkegaard 2-15
TTITLE15=Kierkegaard 2-16
EXTD=
EXTT0=
EXTT1=
EXTT2=
EXTT3=
EXTT4=
EXTT5=
EXTT6=
EXTT7=
EXTT8=
EXTT9=
EXTT10=
EXTT11=
EXTT12=
EXTT13=
EXTT14=
EXTT15=
PLAYORDER=
